<svg xmlns="http://www.w3.org/2000/svg" data-name="Layer 1" viewBox="0 0 100 125" x="0px" y="0px"><title>Artboard 34</title><rect x="24.5" y="16.64" width="71.43" height="5.71" rx="2" ry="2"/><rect x="24.5" y="77.64" width="71.43" height="5.71" rx="2" ry="2"/><path d="M93.93,47.11H14.57L20,41.23a2.26,2.26,0,0,0,0-3.15l-.84-.84a2.25,2.25,0,0,0-3.21,0L4.71,48.36a2.25,2.25,0,0,0,0,3.14L15.87,62.59a2.25,2.25,0,0,0,3.21,0l.84-.84a2.26,2.26,0,0,0,0-3.15l-5.4-5.88H93.93a2,2,0,0,0,2-2V49.11A2,2,0,0,0,93.93,47.11Z"/><text x="0" y="115" fill="#000000" font-size="5px" font-weight="bold" font-family="'Helvetica Neue', Helvetica, Arial-Unicode, Arial, Sans-serif">Created by Mike Rowe</text><text x="0" y="120" fill="#000000" font-size="5px" font-weight="bold" font-family="'Helvetica Neue', Helvetica, Arial-Unicode, Arial, Sans-serif">from the Noun Project</text></svg>